<svg xmlns="http://www.w3.org/2000/svg" xmlns:xlink="http://www.w3.org/1999/xlink" xmlns:lucid="lucid" width="864" height="672"><g transform="translate(-3010 -528)" lucid:page-tab-id="0_0"><path d="M0 0h5484.6v1322.84H0z" fill="#fff"/><path d="M3060 580a6 6 0 0 1 6-6h288a6 6 0 0 1 6 6v208a6 6 0 0 1-6 6h-288a6 6 0 0 1-6-6z" fill="#fff"/><path d="M3060 650v37h300v-37M3060 722v37h300v-37" fill="#cfe4ff"/><path d="M3060 580a6 6 0 0 1 6-6h288a6 6 0 0 1 6 6v208a6 6 0 0 1-6 6h-288a6 6 0 0 1-6-6zM3060 614h300M3215.4 614v180" stroke="#5e5e5e" stroke-width="3" fill="none"/><use xlink:href="#a" transform="matrix(1,0,0,1,3070,574) translate(94.3 28.255555555555556)"/><use xlink:href="#b" transform="matrix(1,0,0,1,3065,616.5) translate(63.55555555555556 23.322222222222223)"/><use xlink:href="#c" transform="matrix(1,0,0,1,3220.3996901430933,616.5) translate(0 23.322222222222223)"/><use xlink:href="#d" transform="matrix(1,0,0,1,3065,652.5) translate(44.86666666666666 23.322222222222223)"/><use xlink:href="#e" transform="matrix(1,0,0,1,3220.3996901430933,652.5) translate(0 23.322222222222223)"/><use xlink:href="#f" transform="matrix(1,0,0,1,3065,688.5) translate(45.355555555555554 23.322222222222223)"/><use xlink:href="#e" transform="matrix(1,0,0,1,3220.3996901430933,688.5) translate(0 23.322222222222223)"/><use xlink:href="#g" transform="matrix(1,0,0,1,3065,724.5) translate(24.499999999999993 23.322222222222223)"/><use xlink:href="#e" transform="matrix(1,0,0,1,3220.3996901430933,724.5) translate(0 23.322222222222223)"/><use xlink:href="#h" transform="matrix(1,0,0,1,3065,760.5) translate(25.96666666666666 23.322222222222223)"/><use xlink:href="#e" transform="matrix(1,0,0,1,3220.3996901430933,760.5) translate(0 23.322222222222223)"/><path d="M3520 583.43a6 6 0 0 1 6-6h288a6 6 0 0 1 6 6v316a6 6 0 0 1-6 6h-288a6 6 0 0 1-6-6z" fill="#fff"/><path d="M3520 653.43v37h300v-37M3520 725.43v37h300v-37M3520 797.43v37h300v-37M3520 869.43v30a6 6 0 0 0 6 6h288a6 6 0 0 0 6-6v-30" fill="#cfe4ff"/><path d="M3520 583.43a6 6 0 0 1 6-6h288a6 6 0 0 1 6 6v316a6 6 0 0 1-6 6h-288a6 6 0 0 1-6-6zM3520 617.43h300M3675.4 617.43v288" stroke="#5e5e5e" stroke-width="3" fill="none"/><use xlink:href="#i" transform="matrix(1,0,0,1,3530,577.4303067808921) translate(47.45555555555556 28.255555555555556)"/><use xlink:href="#b" transform="matrix(1,0,0,1,3525,619.9303067808921) translate(63.55555555555556 23.322222222222223)"/><use xlink:href="#c" transform="matrix(1,0,0,1,3680.3996901430933,619.9303067808921) translate(0 23.322222222222223)"/><use xlink:href="#j" transform="matrix(1,0,0,1,3525,655.9303067808921) translate(51.78888888888889 23.322222222222223)"/><use xlink:href="#e" transform="matrix(1,0,0,1,3680.3996901430933,655.9303067808921) translate(0 23.322222222222223)"/><use xlink:href="#k" transform="matrix(1,0,0,1,3525,691.9303067808921) translate(38.9 23.322222222222223)"/><use xlink:href="#e" transform="matrix(1,0,0,1,3680.3996901430933,691.9303067808921) translate(0 23.322222222222223)"/><use xlink:href="#l" transform="matrix(1,0,0,1,3525,727.9303067808921) translate(45.74444444444444 23.322222222222223)"/><use xlink:href="#m" transform="matrix(1,0,0,1,3680.3996901430933,727.9303067808921) translate(0 23.322222222222223)"/><use xlink:href="#n" transform="matrix(1,0,0,1,3525,763.9303067808921) translate(24.922222222222217 23.322222222222223)"/><use xlink:href="#e" transform="matrix(1,0,0,1,3680.3996901430933,763.9303067808921) translate(0 23.322222222222223)"/><use xlink:href="#o" transform="matrix(1,0,0,1,3525,799.9303067808921) translate(29.988888888888887 23.322222222222223)"/><use xlink:href="#p" transform="matrix(1,0,0,1,3680.3996901430933,799.9303067808921) translate(0 23.322222222222223)"/><use xlink:href="#q" transform="matrix(1,0,0,1,3525,835.9303067808921) translate(36.03333333333333 23.322222222222223)"/><use xlink:href="#r" transform="matrix(1,0,0,1,3680.3996901430933,835.9303067808921) translate(0 23.322222222222223)"/><use xlink:href="#s" transform="matrix(1,0,0,1,3525,871.9303067808921) translate(13.144444444444431 23.322222222222223)"/><use xlink:href="#r" transform="matrix(1,0,0,1,3680.3996901430933,871.9303067808921) translate(0 23.322222222222223)"/><path d="M3520 1023a6 6 0 0 1 6-6h288a6 6 0 0 1 6 6v100a6 6 0 0 1-6 6h-288a6 6 0 0 1-6-6z" fill="#fff"/><path d="M3520 1093v30a6 6 0 0 0 6 6h288a6 6 0 0 0 6-6v-30" fill="#cfe4ff"/><path d="M3520 1023a6 6 0 0 1 6-6h288a6 6 0 0 1 6 6v100a6 6 0 0 1-6 6h-288a6 6 0 0 1-6-6zM3520 1057h300M3675.4 1057v72" stroke="#5e5e5e" stroke-width="3" fill="none"/><use xlink:href="#t" transform="matrix(1,0,0,1,3530,1017) translate(70.33333333333333 28.255555555555556)"/><use xlink:href="#b" transform="matrix(1,0,0,1,3525,1059.5) translate(63.55555555555556 23.322222222222223)"/><use xlink:href="#c" transform="matrix(1,0,0,1,3680.3996901430933,1059.5) translate(0 23.322222222222223)"/><use xlink:href="#d" transform="matrix(1,0,0,1,3525,1095.5) translate(44.86666666666666 23.322222222222223)"/><use xlink:href="#e" transform="matrix(1,0,0,1,3680.3996901430933,1095.5) translate(0 23.322222222222223)"/><path d="M3670 995.5v-69.75" stroke="#282c33" stroke-width="2" fill="none"/><path d="M3680 995.5h-20M3670 1015.5v-20" stroke="#282c33" stroke-width="2" fill="#fff"/><path d="M3680 907.38l-10 20-10-20" stroke="#282c33" stroke-width="2" fill="#fff" fill-opacity="0"/><path d="M3670 907.38v20" stroke="#282c33" stroke-width="2" fill="#fff"/><path d="M3381.5 704.2h56.9a1.6 1.6 0 0 1 1.6 1.62 1.6 1.6 0 0 0 1.6 1.6h58.08" stroke="#282c33" stroke-width="2" fill="none"/><path d="M3381.5 714.2v-20M3361.5 704.2h20" stroke="#282c33" stroke-width="2" fill="#fff"/><path d="M3518.05 717.43l-20-10 20-10" stroke="#282c33" stroke-width="2" fill="#fff" fill-opacity="0"/><path d="M3518.05 707.43h-20" stroke="#282c33" stroke-width="2" fill="#fff"/><defs><path fill="#333" d="M273 12C125 12 65-67 65-215v-442l149-24v155h179v124H214v185c2 63 16 104 83 103 34 0 71-7 96-17l21 116c-41 16-81 27-141 27" id="u"/><path fill="#333" d="M219-119c117 28 188-35 188-148 0-96-35-144-106-144-30 0-64 9-82 21v271zm110-418c161 0 230 111 230 274 0 176-97 276-274 276-78 0-153-12-215-30v-735l149-24v262c32-14 66-23 110-23" id="v"/><path fill="#333" d="M0 61h500v124H0V61" id="w"/><path fill="#333" d="M304-115c21 0 48-2 66-5v-406h149v508C462-2 373 12 295 12 133 12 65-74 65-233v-293h149v275c2 86 11 133 90 136" id="x"/><path fill="#333" d="M64-139c45 18 98 32 157 32 46 0 72-1 75-39-14-53-105-62-152-89-51-30-89-66-91-145-5-167 225-188 368-133l-26 116c-36-12-75-23-125-23-84 0-86 59-30 82 96 39 207 59 204 194-2 116-97 158-224 158C148 14 81-2 39-18" id="y"/><path fill="#333" d="M323 14C144 14 45-83 45-259c0-170 90-275 252-281 176-6 262 133 239 326H198c8 66 67 100 145 100 51 0 111-11 145-26l20 121C460 2 393 14 323 14zm72-330c13-111-157-138-187-38-4 12-8 25-10 38h197" id="z"/><path fill="#333" d="M70-498c86-33 237-58 342-19l-25 123c-45-13-116-24-168-8V0H70v-498" id="A"/><g id="a"><use transform="matrix(0.022222222222222223,0,0,0.022222222222222223,0,0)" xlink:href="#u"/><use transform="matrix(0.022222222222222223,0,0,0.022222222222222223,9.866666666666667,0)" xlink:href="#v"/><use transform="matrix(0.022222222222222223,0,0,0.022222222222222223,23.28888888888889,0)" xlink:href="#w"/><use transform="matrix(0.022222222222222223,0,0,0.022222222222222223,34.400000000000006,0)" xlink:href="#x"/><use transform="matrix(0.022222222222222223,0,0,0.022222222222222223,47.48888888888889,0)" xlink:href="#y"/><use transform="matrix(0.022222222222222223,0,0,0.022222222222222223,58.266666666666666,0)" xlink:href="#z"/><use transform="matrix(0.022222222222222223,0,0,0.022222222222222223,71.24444444444445,0)" xlink:href="#A"/><use transform="matrix(0.022222222222222223,0,0,0.022222222222222223,80.62222222222223,0)" xlink:href="#y"/></g><path fill="#333" d="M175 0H82v-520h93V0zm13-675c0 35-26 61-60 61s-60-26-60-61 26-61 60-61 60 26 60 61" id="B"/><path fill="#333" d="M315-70c41 0 75-4 103-11v-329c-24-19-73-42-119-40-110 2-147 80-149 190-2 113 59 189 165 190zm-28-462c51-2 103 18 131 35v-263l93-16v761C458-1 388 13 314 12 145 7 53-90 53-260c0-162 75-266 234-272" id="C"/><g id="b"><use transform="matrix(0.022222222222222223,0,0,0.022222222222222223,0,0)" xlink:href="#B"/><use transform="matrix(0.022222222222222223,0,0,0.022222222222222223,5.711111111111111,0)" xlink:href="#C"/></g><path fill="#333" d="M173-151c-3 59 26 79 78 83l-13 78C129 7 80-30 80-136v-624l93-16v625" id="D"/><path fill="#333" d="M297-533c160 0 244 110 244 273S457 13 297 13 53-97 53-260s84-273 244-273zm0 464c98 0 147-85 147-191s-49-191-147-191-147 85-147 191S199-69 297-69" id="E"/><path fill="#333" d="M279-449c-36 1-74 4-104 10V0H82v-505c55-13 130-26 207-26 153 0 213 87 213 239V0h-93v-272c1-107-22-180-130-177" id="F"/><path fill="#333" d="M252 108c114 0 161-44 156-160-25 15-79 35-127 33-151-6-228-96-228-252 0-162 90-254 252-260 75-2 141 15 195 27v464c0 164-85 227-250 228-62 1-124-12-168-27l17-81c38 15 98 28 153 28zm38-207c46 2 92-16 117-35v-304c-29-7-58-11-101-11-102-1-157 76-156 179 2 102 44 167 140 171" id="G"/><g id="c"><use transform="matrix(0.022222222222222223,0,0,0.022222222222222223,0,0)" xlink:href="#D"/><use transform="matrix(0.022222222222222223,0,0,0.022222222222222223,6.155555555555556,0)" xlink:href="#E"/><use transform="matrix(0.022222222222222223,0,0,0.022222222222222223,19.355555555555558,0)" xlink:href="#F"/><use transform="matrix(0.022222222222222223,0,0,0.022222222222222223,32.2,0)" xlink:href="#G"/></g><path fill="#333" d="M139-156c0 106 132 93 220 82v-155c-78-22-220-23-220 73zm-94 1c-2-152 173-180 314-148 5-94-26-150-117-150-50 0-101 8-132 20l-11-77c32-13 99-23 151-23 135 0 201 66 200 199V-9C390 1 319 11 247 11 126 11 46-34 45-155" id="H"/><path fill="#333" d="M278-449c-36 0-74 4-103 10V0H82v-505c94-23 290-55 347 27 41-28 96-52 166-53 149-3 194 91 194 239V0h-93v-272c0-100-11-177-111-177-50 0-96 17-119 35 30 114 10 276 16 414h-93v-272c0-99-12-179-111-177" id="I"/><path fill="#333" d="M315 12C141 9 53-87 53-259c0-164 81-274 237-274 163 0 227 118 216 298H150c9 108 58 165 175 165 54 0 101-11 133-25l13 78c-33 16-99 31-156 29zm95-322c8-101-82-177-178-132-47 22-73 71-80 132h258" id="J"/><g id="d"><use transform="matrix(0.022222222222222223,0,0,0.022222222222222223,0,0)" xlink:href="#F"/><use transform="matrix(0.022222222222222223,0,0,0.022222222222222223,12.844444444444445,0)" xlink:href="#H"/><use transform="matrix(0.022222222222222223,0,0,0.022222222222222223,24.533333333333335,0)" xlink:href="#I"/><use transform="matrix(0.022222222222222223,0,0,0.022222222222222223,43.75555555555556,0)" xlink:href="#J"/></g><path fill="#333" d="M255-109c52-125 101-269 137-411h96C441-339 364-151 295 0h-84C142-151 64-339 18-520h100c36 142 85 286 137 411" id="K"/><path fill="#333" d="M82-498c73-28 204-47 296-18l-16 81c-44-19-138-19-187-2V0H82v-498" id="L"/><path fill="#333" d="M447-14c-35 17-88 26-139 26C139 12 53-90 53-259c0-187 118-299 319-268 23 4 46 10 67 19l-21 79c-28-13-66-22-107-22-111 1-162 75-161 192 1 118 51 189 170 189 43 1 87-10 114-22" id="M"/><path fill="#333" d="M279-449c-38 1-76 8-104 17V0H82v-760l93-16v266c32-12 72-21 114-21 153-1 213 87 213 239V0h-93v-272c1-107-22-181-130-177" id="N"/><g id="e"><use transform="matrix(0.022222222222222223,0,0,0.022222222222222223,0,0)" xlink:href="#K"/><use transform="matrix(0.022222222222222223,0,0,0.022222222222222223,11.244444444444445,0)" xlink:href="#H"/><use transform="matrix(0.022222222222222223,0,0,0.022222222222222223,22.93333333333334,0)" xlink:href="#L"/><use transform="matrix(0.022222222222222223,0,0,0.022222222222222223,31.600000000000005,0)" xlink:href="#M"/><use transform="matrix(0.022222222222222223,0,0,0.022222222222222223,42.022222222222226,0)" xlink:href="#N"/><use transform="matrix(0.022222222222222223,0,0,0.022222222222222223,54.800000000000004,0)" xlink:href="#H"/><use transform="matrix(0.022222222222222223,0,0,0.022222222222222223,66.4888888888889,0)" xlink:href="#L"/></g><g id="f"><use transform="matrix(0.022222222222222223,0,0,0.022222222222222223,0,0)" xlink:href="#J"/><use transform="matrix(0.022222222222222223,0,0,0.022222222222222223,12.511111111111111,0)" xlink:href="#I"/><use transform="matrix(0.022222222222222223,0,0,0.022222222222222223,31.733333333333334,0)" xlink:href="#H"/><use transform="matrix(0.022222222222222223,0,0,0.022222222222222223,43.422222222222224,0)" xlink:href="#B"/><use transform="matrix(0.022222222222222223,0,0,0.022222222222222223,49.13333333333333,0)" xlink:href="#D"/></g><path fill="#333" d="M294-70c109-2 147-79 149-189 2-113-59-188-165-189-45 0-73 2-103 10v328c24 19 73 42 119 40zm-15-461c169 5 261 102 261 272C540-98 465 6 306 12c-51 2-103-18-131-35v208H82v-689c54-12 122-29 197-27" id="O"/><path fill="#333" d="M59-97c36 13 83 32 144 30 63-2 112-9 112-63 0-99-160-93-221-153-24-24-44-52-44-100 0-151 196-178 331-127l-17 80c-60-35-257-49-214 69 69 92 264 59 259 227-2 107-89 146-206 146C133 12 82-2 42-17" id="P"/><path fill="#333" d="M761-520C714-334 656-153 588 0h-81c-40-105-86-236-117-357-31 122-76 252-116 357h-81C125-153 67-334 20-520h100c31 138 71 286 118 407 45-126 85-269 117-407h77c30 140 70 281 115 407 46-123 88-268 118-407h96" id="Q"/><g id="g"><use transform="matrix(0.022222222222222223,0,0,0.022222222222222223,0,0)" xlink:href="#O"/><use transform="matrix(0.022222222222222223,0,0,0.022222222222222223,13.177777777777779,0)" xlink:href="#H"/><use transform="matrix(0.022222222222222223,0,0,0.022222222222222223,24.866666666666667,0)" xlink:href="#P"/><use transform="matrix(0.022222222222222223,0,0,0.022222222222222223,34.86666666666667,0)" xlink:href="#P"/><use transform="matrix(0.022222222222222223,0,0,0.022222222222222223,44.86666666666667,0)" xlink:href="#Q"/><use transform="matrix(0.022222222222222223,0,0,0.022222222222222223,61.955555555555556,0)" xlink:href="#E"/><use transform="matrix(0.022222222222222223,0,0,0.022222222222222223,75.15555555555557,0)" xlink:href="#L"/><use transform="matrix(0.022222222222222223,0,0,0.022222222222222223,83.82222222222224,0)" xlink:href="#C"/></g><path fill="#333" d="M300-71c36 0 74-3 103-10v-439h93v505C441-2 367 11 290 11 138 11 76-78 76-228v-292h93v272c2 116 24 177 131 177" id="R"/><path fill="#333" d="M257 11C121 11 76-66 76-201v-464l93-16v161h197v78H169v240c-1 80 17 131 96 131 43 0 79-13 103-23l18 77c-27 12-82 28-129 28" id="S"/><path fill="#333" d="M266-100c50-137 84-270 119-420h96C435-330 371-148 306 16 261 129 164 226 4 172l17-75c41 21 118 16 149-11 20-17 39-42 56-79C145-149 66-333 18-520h100c37 148 89 293 148 420" id="T"/><g id="h"><use transform="matrix(0.022222222222222223,0,0,0.022222222222222223,0,0)" xlink:href="#H"/><use transform="matrix(0.022222222222222223,0,0,0.022222222222222223,11.68888888888889,0)" xlink:href="#R"/><use transform="matrix(0.022222222222222223,0,0,0.022222222222222223,24.533333333333335,0)" xlink:href="#S"/><use transform="matrix(0.022222222222222223,0,0,0.022222222222222223,33.55555555555556,0)" xlink:href="#N"/><use transform="matrix(0.022222222222222223,0,0,0.022222222222222223,46.333333333333336,0)" xlink:href="#E"/><use transform="matrix(0.022222222222222223,0,0,0.022222222222222223,59.53333333333334,0)" xlink:href="#L"/><use transform="matrix(0.022222222222222223,0,0,0.022222222222222223,68.2,0)" xlink:href="#B"/><use transform="matrix(0.022222222222222223,0,0,0.022222222222222223,73.91111111111111,0)" xlink:href="#S"/><use transform="matrix(0.022222222222222223,0,0,0.022222222222222223,82.93333333333334,0)" xlink:href="#T"/></g><path fill="#333" d="M375-413c-107-27-178 30-178 133 0 83 34 125 101 125 30 0 58-10 77-20v-238zm-62-125c77 0 150 13 211 30v442c-1 176-89 254-268 254-67 0-134-14-185-31L97 32c47 18 95 30 161 30 84 0 121-38 117-119-31 14-62 22-105 22-148 1-228-95-225-245 3-167 100-258 268-258" id="U"/><path fill="#333" d="M183-166c-2 75 96 63 162 58v-113c-63-10-160-16-162 55zm-148 4c-1-153 163-182 310-156 2-69-30-99-103-98-49 0-104 8-139 21L84-515c50-14 111-24 175-25 152-2 229 65 229 215v310C426-2 349 12 261 11 129 9 36-30 35-162" id="V"/><path fill="#333" d="M497-390c22 111 6 261 11 390H359v-279c-2-83-10-128-82-132-19 0-40 3-58 5V0H70v-508c63-16 136-29 216-30 70-1 115 20 151 49 35-26 95-48 150-49 154-2 210 88 210 241V0H648v-279c4-96-28-148-116-126-14 4-26 9-35 15" id="W"/><path fill="#333" d="M540-526C484-337 414-152 337 0H213C136-152 65-338 10-526h158c31 116 69 239 109 347 39-108 78-231 109-347h154" id="X"/><path fill="#333" d="M219 0H70v-526h149V0zm-75-766c49 0 89 36 89 88s-40 88-89 88-89-36-89-88 40-88 89-88" id="Y"/><path fill="#333" d="M774-526C722-346 666-160 599 0H483c-32-100-66-198-93-302-27 104-57 202-90 302H184C118-160 62-347 10-526h157c25 114 52 235 83 344 32-111 63-229 90-344h108c26 114 55 234 87 344 32-109 59-230 84-344h155" id="Z"/><g id="i"><use transform="matrix(0.022222222222222223,0,0,0.022222222222222223,0,0)" xlink:href="#u"/><use transform="matrix(0.022222222222222223,0,0,0.022222222222222223,9.866666666666667,0)" xlink:href="#v"/><use transform="matrix(0.022222222222222223,0,0,0.022222222222222223,23.28888888888889,0)" xlink:href="#w"/><use transform="matrix(0.022222222222222223,0,0,0.022222222222222223,34.400000000000006,0)" xlink:href="#U"/><use transform="matrix(0.022222222222222223,0,0,0.022222222222222223,47.60000000000001,0)" xlink:href="#V"/><use transform="matrix(0.022222222222222223,0,0,0.022222222222222223,59.8888888888889,0)" xlink:href="#W"/><use transform="matrix(0.022222222222222223,0,0,0.022222222222222223,79.04444444444445,0)" xlink:href="#z"/><use transform="matrix(0.022222222222222223,0,0,0.022222222222222223,92.02222222222223,0)" xlink:href="#w"/><use transform="matrix(0.022222222222222223,0,0,0.022222222222222223,103.13333333333334,0)" xlink:href="#A"/><use transform="matrix(0.022222222222222223,0,0,0.022222222222222223,112.28888888888889,0)" xlink:href="#z"/><use transform="matrix(0.022222222222222223,0,0,0.022222222222222223,125.26666666666667,0)" xlink:href="#X"/><use transform="matrix(0.022222222222222223,0,0,0.022222222222222223,137.48888888888888,0)" xlink:href="#Y"/><use transform="matrix(0.022222222222222223,0,0,0.022222222222222223,143.9111111111111,0)" xlink:href="#z"/><use transform="matrix(0.022222222222222223,0,0,0.022222222222222223,156.88888888888889,0)" xlink:href="#Z"/><use transform="matrix(0.022222222222222223,0,0,0.022222222222222223,174.3111111111111,0)" xlink:href="#y"/></g><g id="j"><use transform="matrix(0.022222222222222223,0,0,0.022222222222222223,0,0)" xlink:href="#S"/><use transform="matrix(0.022222222222222223,0,0,0.022222222222222223,9.022222222222222,0)" xlink:href="#B"/><use transform="matrix(0.022222222222222223,0,0,0.022222222222222223,14.733333333333334,0)" xlink:href="#S"/><use transform="matrix(0.022222222222222223,0,0,0.022222222222222223,23.755555555555556,0)" xlink:href="#D"/><use transform="matrix(0.022222222222222223,0,0,0.022222222222222223,29.91111111111111,0)" xlink:href="#J"/></g><g id="k"><use transform="matrix(0.022222222222222223,0,0,0.022222222222222223,0,0)" xlink:href="#H"/><use transform="matrix(0.022222222222222223,0,0,0.022222222222222223,11.68888888888889,0)" xlink:href="#R"/><use transform="matrix(0.022222222222222223,0,0,0.022222222222222223,24.533333333333335,0)" xlink:href="#S"/><use transform="matrix(0.022222222222222223,0,0,0.022222222222222223,33.55555555555556,0)" xlink:href="#N"/><use transform="matrix(0.022222222222222223,0,0,0.022222222222222223,46.333333333333336,0)" xlink:href="#E"/><use transform="matrix(0.022222222222222223,0,0,0.022222222222222223,59.53333333333334,0)" xlink:href="#L"/></g><g id="l"><use transform="matrix(0.022222222222222223,0,0,0.022222222222222223,0,0)" xlink:href="#P"/><use transform="matrix(0.022222222222222223,0,0,0.022222222222222223,10,0)" xlink:href="#M"/><use transform="matrix(0.022222222222222223,0,0,0.022222222222222223,20.133333333333333,0)" xlink:href="#E"/><use transform="matrix(0.022222222222222223,0,0,0.022222222222222223,33.333333333333336,0)" xlink:href="#L"/><use transform="matrix(0.022222222222222223,0,0,0.022222222222222223,42,0)" xlink:href="#J"/></g><g id="m"><use transform="matrix(0.022222222222222223,0,0,0.022222222222222223,0,0)" xlink:href="#B"/><use transform="matrix(0.022222222222222223,0,0,0.022222222222222223,5.711111111111111,0)" xlink:href="#F"/><use transform="matrix(0.022222222222222223,0,0,0.022222222222222223,18.555555555555557,0)" xlink:href="#S"/><use transform="matrix(0.022222222222222223,0,0,0.022222222222222223,27.355555555555558,0)" xlink:href="#J"/><use transform="matrix(0.022222222222222223,0,0,0.022222222222222223,39.86666666666667,0)" xlink:href="#G"/><use transform="matrix(0.022222222222222223,0,0,0.022222222222222223,52.800000000000004,0)" xlink:href="#J"/><use transform="matrix(0.022222222222222223,0,0,0.022222222222222223,65.3111111111111,0)" xlink:href="#L"/></g><g id="n"><use transform="matrix(0.022222222222222223,0,0,0.022222222222222223,0,0)" xlink:href="#M"/><use transform="matrix(0.022222222222222223,0,0,0.022222222222222223,10.133333333333333,0)" xlink:href="#E"/><use transform="matrix(0.022222222222222223,0,0,0.022222222222222223,23.333333333333336,0)" xlink:href="#I"/><use transform="matrix(0.022222222222222223,0,0,0.022222222222222223,42.55555555555556,0)" xlink:href="#I"/><use transform="matrix(0.022222222222222223,0,0,0.022222222222222223,61.77777777777778,0)" xlink:href="#J"/><use transform="matrix(0.022222222222222223,0,0,0.022222222222222223,74.28888888888889,0)" xlink:href="#F"/><use transform="matrix(0.022222222222222223,0,0,0.022222222222222223,87.13333333333334,0)" xlink:href="#S"/></g><g id="o"><use transform="matrix(0.022222222222222223,0,0,0.022222222222222223,0,0)" xlink:href="#I"/><use transform="matrix(0.022222222222222223,0,0,0.022222222222222223,19.22222222222222,0)" xlink:href="#E"/><use transform="matrix(0.022222222222222223,0,0,0.022222222222222223,32.422222222222224,0)" xlink:href="#I"/><use transform="matrix(0.022222222222222223,0,0,0.022222222222222223,51.644444444444446,0)" xlink:href="#J"/><use transform="matrix(0.022222222222222223,0,0,0.022222222222222223,64.15555555555555,0)" xlink:href="#F"/><use transform="matrix(0.022222222222222223,0,0,0.022222222222222223,77,0)" xlink:href="#S"/></g><g id="p"><use transform="matrix(0.022222222222222223,0,0,0.022222222222222223,0,0)" xlink:href="#C"/><use transform="matrix(0.022222222222222223,0,0,0.022222222222222223,13.177777777777779,0)" xlink:href="#H"/><use transform="matrix(0.022222222222222223,0,0,0.022222222222222223,24.866666666666667,0)" xlink:href="#S"/><use transform="matrix(0.022222222222222223,0,0,0.022222222222222223,33.66666666666667,0)" xlink:href="#J"/></g><path fill="#333" d="M-2 106h500v79H-2v-79" id="aa"/><g id="q"><use transform="matrix(0.022222222222222223,0,0,0.022222222222222223,0,0)" xlink:href="#B"/><use transform="matrix(0.022222222222222223,0,0,0.022222222222222223,5.711111111111111,0)" xlink:href="#C"/><use transform="matrix(0.022222222222222223,0,0,0.022222222222222223,18.88888888888889,0)" xlink:href="#aa"/><use transform="matrix(0.022222222222222223,0,0,0.022222222222222223,29.91111111111111,0)" xlink:href="#R"/><use transform="matrix(0.022222222222222223,0,0,0.022222222222222223,42.75555555555556,0)" xlink:href="#P"/><use transform="matrix(0.022222222222222223,0,0,0.022222222222222223,52.75555555555556,0)" xlink:href="#J"/><use transform="matrix(0.022222222222222223,0,0,0.022222222222222223,65.26666666666667,0)" xlink:href="#L"/></g><g id="r"><use transform="matrix(0.022222222222222223,0,0,0.022222222222222223,0,0)" xlink:href="#D"/><use transform="matrix(0.022222222222222223,0,0,0.022222222222222223,6.155555555555556,0)" xlink:href="#E"/><use transform="matrix(0.022222222222222223,0,0,0.022222222222222223,19.355555555555558,0)" xlink:href="#F"/><use transform="matrix(0.022222222222222223,0,0,0.022222222222222223,32.2,0)" xlink:href="#G"/></g><path fill="#333" d="M82-567C68-745 227-812 397-759l-17 80c-21-10-52-17-88-17-102 0-122 72-117 176h200v78H175V0H82v-567" id="ab"/><g id="s"><use transform="matrix(0.022222222222222223,0,0,0.022222222222222223,0,0)" xlink:href="#B"/><use transform="matrix(0.022222222222222223,0,0,0.022222222222222223,5.711111111111111,0)" xlink:href="#C"/><use transform="matrix(0.022222222222222223,0,0,0.022222222222222223,18.88888888888889,0)" xlink:href="#aa"/><use transform="matrix(0.022222222222222223,0,0,0.022222222222222223,29.91111111111111,0)" xlink:href="#O"/><use transform="matrix(0.022222222222222223,0,0,0.022222222222222223,43.08888888888889,0)" xlink:href="#D"/><use transform="matrix(0.022222222222222223,0,0,0.022222222222222223,49.24444444444445,0)" xlink:href="#H"/><use transform="matrix(0.022222222222222223,0,0,0.022222222222222223,60.93333333333334,0)" xlink:href="#S"/><use transform="matrix(0.022222222222222223,0,0,0.022222222222222223,69.95555555555556,0)" xlink:href="#ab"/><use transform="matrix(0.022222222222222223,0,0,0.022222222222222223,78.62222222222223,0)" xlink:href="#E"/><use transform="matrix(0.022222222222222223,0,0,0.022222222222222223,91.82222222222225,0)" xlink:href="#L"/><use transform="matrix(0.022222222222222223,0,0,0.022222222222222223,100.48888888888891,0)" xlink:href="#I"/></g><path fill="#333" d="M219-137c18 12 52 21 82 21 71 0 106-48 106-143 0-113-71-175-188-147v269zm66-401c176 0 274 99 274 275 0 162-70 273-230 273-44 0-78-9-110-23v198H70v-693c62-18 137-30 215-30" id="ac"/><path fill="#333" d="M219-203c-2 61 24 87 82 90L280 10C144 10 70-36 70-173v-579l149-24v573" id="ad"/><path fill="#333" d="M70-554C56-744 252-822 429-751l-29 119c-23-11-56-18-87-18-75-1-100 46-94 124h184v124H219V0H70v-554" id="ae"/><path fill="#333" d="M304-540c166 0 258 108 258 276 0 170-90 278-258 278S45-95 45-264c0-168 94-276 259-276zm0 426c75 0 106-68 106-150s-31-148-106-148-107 66-107 148 32 150 107 150" id="af"/><g id="t"><use transform="matrix(0.022222222222222223,0,0,0.022222222222222223,0,0)" xlink:href="#u"/><use transform="matrix(0.022222222222222223,0,0,0.022222222222222223,9.866666666666667,0)" xlink:href="#v"/><use transform="matrix(0.022222222222222223,0,0,0.022222222222222223,23.28888888888889,0)" xlink:href="#w"/><use transform="matrix(0.022222222222222223,0,0,0.022222222222222223,34.400000000000006,0)" xlink:href="#ac"/><use transform="matrix(0.022222222222222223,0,0,0.022222222222222223,47.82222222222224,0)" xlink:href="#ad"/><use transform="matrix(0.022222222222222223,0,0,0.022222222222222223,55.17777777777779,0)" xlink:href="#V"/><use transform="matrix(0.022222222222222223,0,0,0.022222222222222223,67.46666666666668,0)" xlink:href="#u"/><use transform="matrix(0.022222222222222223,0,0,0.022222222222222223,77.33333333333334,0)" xlink:href="#ae"/><use transform="matrix(0.022222222222222223,0,0,0.022222222222222223,86.53333333333335,0)" xlink:href="#af"/><use transform="matrix(0.022222222222222223,0,0,0.022222222222222223,100.02222222222224,0)" xlink:href="#A"/><use transform="matrix(0.022222222222222223,0,0,0.022222222222222223,109.40000000000002,0)" xlink:href="#W"/><use transform="matrix(0.022222222222222223,0,0,0.022222222222222223,128.55555555555557,0)" xlink:href="#y"/></g></defs></g></svg>