<svg xmlns="http://www.w3.org/2000/svg" xmlns:xlink="http://www.w3.org/1999/xlink" viewBox="0,0,256,256" width="30px" height="30px" fill-rule="nonzero"><g fill="#ff9f00" fill-rule="nonzero" stroke="none" stroke-width="1" stroke-linecap="butt" stroke-linejoin="miter" stroke-miterlimit="10" stroke-dasharray="" stroke-dashoffset="0" font-family="none" font-weight="none" font-size="none" text-anchor="none" style="mix-blend-mode: normal"><g transform="scale(8.53333,8.53333)"><path d="M15,3c-1.657,0 -3,1.343 -3,3c0,1.657 1.343,3 3,3c1.657,0 3,-1.343 3,-3c0,-1.657 -1.343,-3 -3,-3zM14,10.86328c-0.652,0.092 -1.29616,0.26511 -1.91016,0.53711l-8.2207,3.65234c-1.16,0.516 -1.16,2.16174 0,2.67774l8.2207,3.65234c1.853,0.823 3.96731,0.823 5.82031,0l8.2207,-3.65234c1.16,-0.516 1.16,-2.16174 0,-2.67773l-8.2207,-3.65234c-0.614,-0.273 -1.25716,-0.44511 -1.91016,-0.53711v5.38672c0,0.414 -0.448,0.75 -1,0.75c-0.552,0 -1,-0.336 -1,-0.75zM7.72266,15.40039c0.946,0 1.71289,0.43851 1.71289,0.97851c0,0.54 -0.76589,0.97656 -1.71289,0.97656c-0.946,0 -1.71289,-0.43656 -1.71289,-0.97656c0,-0.54 0.76689,-0.97851 1.71289,-0.97851zM3.39648,19.14453c-0.20953,0.01987 -0.38867,0.19524 -0.38867,0.42773v0.83008c0.003,0.537 0.28628,1.07212 0.86328,1.32813l8.2207,3.65234c1.853,0.823 3.96536,0.823 5.81836,0l8.2207,-3.65234c0.577,-0.256 0.86028,-0.79113 0.86328,-1.32812v-0.83008c0,-0.31 -0.32052,-0.51662 -0.60352,-0.39062l-8.48047,3.76563c-1.853,0.823 -3.96731,0.823 -5.82031,0l-8.47852,-3.76562c-0.071,-0.0315 -0.145,-0.04373 -0.21484,-0.03711z"></path></g></g></svg>